#!OML:ASF H:\Pregnant\Project 1\Capture day 1\Session 1\femalepreg.ASF
:FULLY-SPECIFIED
:DEGREES
781
root 0.545395 16.3621 -41.7779 20.7896 -0.360523 -0.79707
lowerback -14.3338 2.31616 10.7599
upperback -6.23471 1.52964 3.98075
thorax 1.53245 0.635291 -1.60684
lowerneck -20.3467 3.26037 3.85793
upperneck 31.9554 5.88617 -6.89358
head 14.8455 2.02238 -2.41814
rclavicle -6.11263e-015 -1.43125e-014
rhumerus -34.1016 2.38947 -75.7223
rradius 28.4205
rwrist -7.47605
rhand -17.5003 -24.6346
rfingers 7.12502
rthumb 8.75257 -54.4331
lclavicle -6.11263e-015 -1.43125e-014
lhumerus -41.2895 -0.214107 78.2909
lradius 28.6492
lwrist 39.8172
lhand -18.1014 -0.426209
lfingers 7.12502
lthumb 8.17251 29.3957
rfemur -41.9855 11.5965 19.3263
rtibia 35.1719
rfoot -15.9615 -12.5226
rtoes -18.9499
lfemur -30.3736 -4.23408 -21.5103
ltibia 42.125
lfoot -13.1307 -3.65598
ltoes -22.629
782
root 0.553787 16.3512 -41.8213 20.708 -0.389694 -0.941387
lowerback -14.4163 2.242 10.6633
upperback -6.25821 1.43381 4.01058
thorax 1.54003 0.589184 -1.53605
lowerneck -20.128 3.30917 3.95114
upperneck 32.0363 5.91477 -6.8397
head 14.8359 2.05738 -2.41013
rclavicle 1.05853e-014 6.52014e-014
rhumerus -34.456 2.27455 -75.6231
rradius 28.4699
rwrist -7.52731
rhand -17.2359 -25.0515
rfingers 7.12502
rthumb 9.00776 -54.8392
lclavicle 1.05853e-014 6.52014e-014
lhumerus -41.1269 -0.021555 78.0633
lradius 28.3933
lwrist 39.7572
lhand -18.3534 -0.342566
lfingers 7.12502
lthumb 7.92926 29.4887
rfemur -42.1049 11.6149 19.4504
rtibia 35.25
rfoot -15.9615 -12.5226
rtoes -18.9499
lfemur -28.8859 -4.10266 -21.5293
ltibia 39.8435
lfoot -13.7343 -3.68964
ltoes -22.2856
783
root 0.562349 16.3406 -41.865 20.627 -0.421478 -1.07977
lowerback -14.4653 2.16399 10.5331
upperback -6.29717 1.34393 4.04323
thorax 1.51385 0.54486 -1.44395
lowerneck -19.9159 3.35173 4.04275
upperneck 32.1389 5.93706 -6.7868
head 14.8372 2.08898 -2.40409
rclavicle 3.08116e-015 -1.27222e-014
rhumerus -34.83 2.17427 -75.5213
rradius 28.5283
rwrist -7.67727
rhand -17.3056 -24.8387
rfingers 7.12502
rthumb 8.94049 -54.6292
lclavicle 3.08116e-015 -1.27222e-014
lhumerus -40.963 0.0964063 77.8938
lradius 28.1766
lwrist 39.7264
lhand -18.6278 -0.269181
lfingers 7.12502
lthumb 7.66437 29.5719
rfemur -42.2239 11.6427 19.5653
rtibia 35.3134
rfoot -15.9615 -12.5226
rtoes -18.9499
lfemur -27.3889 -3.98538 -21.5537
ltibia 37.4494
lfoot -14.5084 -3.56258
ltoes -21.5537
784
root 0.571194 16.3307 -41.9078 20.5284 -0.413869 -1.21221
lowerback -14.5034 2.0678 10.3859
upperback -6.33286 1.23385 4.07908
thorax 1.48369 0.490899 -1.34263
lowerneck -19.7187 3.39251 4.1323
upperneck 32.2592 5.95791 -6.73141
head 14.8499 2.11954 -2.39738
rclavicle 4.72114e-015 -1.74931e-014
rhumerus -35.2027 2.09807 -75.4278
rradius 28.6066
rwrist -7.90639
rhand -17.4804 -24.351
rfingers 7.12502
rthumb 8.77182 -54.1488
lclavicle 4.72114e-015 -1.74931e-014
lhumerus -40.7506 0.176396 77.7612
lradius 27.954
lwrist 39.6975
lhand -18.9368 -0.21472
lfingers 7.12502
lthumb 7.36612 29.637
rfemur -42.3 11.6648 19.6823
rtibia 35.3516
rfoot -15.9615 -12.5226
rtoes -18.9499
lfemur -25.8733 -3.91882 -21.5692
ltibia 34.9778
lfoot -15.3688 -3.26453
ltoes -20.557
785
root 0.580091 16.3232 -41.9498 20.4301 -0.39062 -1.34784
lowerback -14.5331 1.96763 10.2214
upperback -6.36973 1.1223 4.11634
thorax 1.44822 0.436397 -1.23063
lowerneck -19.5496 3.42617 4.21916
upperneck 32.4019 5.96696 -6.66672
head 14.8779 2.14521 -2.38897
rclavicle -1.71452e-014 -3.81667e-014
rhumerus -35.5649 2.01025 -75.3281
rradius 28.6972
rwrist -8.12352
rhand -17.7454 -23.7926
rfingers 7.12502
rthumb 8.51605 -53.6009
lclavicle -1.71452e-014 -3.81667e-014
lhumerus -40.5317 0.21772 77.6656
lradius 27.7686
lwrist 39.6704
lhand -19.2374 -0.209299
lfingers 7.12502
lthumb 7.07598 29.6524
rfemur -42.382 11.7122 19.7836
rtibia 35.3649
rfoot -15.9615 -12.5226
rtoes -18.9499
lfemur -24.3587 -3.90031 -21.5685
ltibia 32.4538
lfoot -16.2136 -2.82131
ltoes -19.3431
786
root 0.589348 16.3164 -41.9918 20.3106 -0.330711 -1.4658
lowerback -14.5847 1.84861 10.0395
upperback -6.3687 0.981956 4.14843
thorax 1.46329 0.370867 -1.11828
lowerneck -19.403 3.46153 4.31006
upperneck 32.5254 5.9755 -6.60335
head 14.9024 2.17068 -2.38125
rclavicle -1.03244e-014 -4.29375e-014
rhumerus -35.8617 1.89571 -75.2253
rradius 28.7728
rwrist -8.28151
rhand -17.9583 -23.541
rfingers 7.12502
rthumb 8.31062 -53.3575
lclavicle -1.03244e-014 -4.29375e-014
lhumerus -40.2809 0.231632 77.6068
lradius 27.645
lwrist 39.6577
lhand -19.5628 -0.223294
lfingers 7.12502
lthumb 6.7619 29.6487
rfemur -42.4244 11.772 19.8611
rtibia 35.3628
rfoot -15.9615 -12.5226
rtoes -18.9499
lfemur -22.8324 -3.96514 -21.5663
ltibia 29.9083
lfoot -16.9331 -2.27348
ltoes -17.9908
787
root 0.599247 16.3105 -42.0345 20.1788 -0.245372 -1.56685
lowerback -14.6078 1.7171 9.83298
upperback -6.36896 0.832999 4.17762
thorax 1.46197 0.300808 -0.997318
lowerneck -19.2527 3.48684 4.40077
upperneck 32.6442 5.96985 -6.5425
head 14.923 2.18991 -2.37713
rclavicle -9.34288e-015 -2.54444e-014
rhumerus -36.1498 1.77142 -75.1148
rradius 28.8191
rwrist -8.41744
rhand -18.0852 -23.6941
rfingers 7.12502
rthumb 8.1881 -53.5154
lclavicle -9.34288e-015 -2.54444e-014
lhumerus -40.076 0.231622 77.5849
lradius 27.6107
lwrist 39.6276
lhand -19.8783 -0.243562
lfingers 7.12502
lthumb 6.45733 29.638
rfemur -42.4529 11.8569 19.9025
rtibia 35.3547
rfoot -15.9615 -12.5226
rtoes -18.9499
lfemur -21.3175 -4.12265 -21.5655
ltibia 27.3688
lfoot -17.4856 -1.65527
ltoes -16.6317
788
root 0.60977 16.3045 -42.079 20.0367 -0.134226 -1.64622
lowerback -14.6213 1.57269 9.60303
upperback -6.3499 0.670131 4.19918
thorax 1.47634 0.225193 -0.873656
lowerneck -19.1237 3.51391 4.49121
upperneck 32.7594 5.96393 -6.47554
head 14.9466 2.20944 -2.37018
rclavicle -1.66606e-014 -1.74931e-014
rhumerus -36.3907 1.62208 -75.0003
rradius 28.8022
rwrist -8.56852
rhand -18.2953 -23.7921
rfingers 7.12502
rthumb 7.98531 -53.6212
lclavicle -1.66606e-014 -1.74931e-014
lhumerus -39.8777 0.247907 77.5817
lradius 27.6465
lwrist 39.5529
lhand -20.1928 -0.289247
lfingers 7.12502
lthumb 6.15368 29.6014
rfemur -42.4718 11.9644 19.9048
rtibia 35.3519
rfoot -15.9615 -12.5226
rtoes -18.9499
lfemur -19.8278 -4.38825 -21.5712
ltibia 24.8552
lfoot -17.8803 -0.996893
ltoes -15.1641
789
root 0.62084 16.2983 -42.1255 19.9023 -0.00900207 -1.71996
lowerback -14.6314 1.42302 9.36037
upperback -6.31945 0.50163 4.21944
thorax 1.50189 0.147559 -0.745094
lowerneck -19.0078 3.54193 4.5807
upperneck 32.8647 5.95905 -6.40942
head 14.9688 2.22903 -2.36285
rclavicle -5.96354e-015 1.59028e-015
rhumerus -36.5893 1.45575 -74.8796
rradius 28.7075
rwrist -8.73566
rhand -18.5605 -23.8269
rfingers 7.12502
rthumb 7.72933 -53.6656
lclavicle -5.96354e-015 1.59028e-015
lhumerus -39.7094 0.259863 77.6074
lradius 27.7807
lwrist 39.4625
lhand -20.4877 -0.342204
lfingers 7.12502
lthumb 5.86894 29.5565
rfemur -42.5019 12.0912 19.884
rtibia 35.3565
rfoot -15.9615 -12.5226
rtoes -18.9499
lfemur -18.3953 -4.75728 -21.57
ltibia 22.386
lfoot -18.1279 -0.272799
ltoes -13.6929
790
root 0.632392 16.293 -42.1736 19.7852 0.125298 -1.7912
lowerback -14.6242 1.27295 9.10879
upperback -6.30691 0.33793 4.2327
thorax 1.50079 0.0709176 -0.618356
lowerneck -18.8501 3.56434 4.69498
upperneck 32.9565 5.94327 -6.35935
head 14.976 2.24597 -2.36864
rclavicle -2.44754e-015 0
rhumerus -36.7981 1.24651 -74.742
rradius 28.5896
rwrist -8.85731
rhand -18.7317 -23.712
rfingers 7.12502
rthumb 7.56409 -53.5568
lclavicle -2.44754e-015 0
lhumerus -39.5784 0.197764 77.6751
lradius 27.9571
lwrist 39.4068
lhand -20.7662 -0.406344
lfingers 7.12502
lthumb 5.60012 29.4997
rfemur -42.5763 12.254 19.8253
rtibia 35.3662
rfoot -15.9615 -12.5226
rtoes -18.9499
lfemur -17.0435 -5.23244 -21.5584
ltibia 19.9809
lfoot -18.2407 0.527277
ltoes -12.3492
791
root 0.644341 16.2875 -42.2241 19.7075 0.279637 -1.86566
lowerback -14.5998 1.12549 8.85008
upperback -6.32742 0.183765 4.24207
thorax 1.45725 -0.00307418 -0.490265
lowerneck -18.6662 3.57822 4.83611
upperneck 33.0505 5.91191 -6.32387
head 14.9787 2.25832 -2.3885
rclavicle 1.31695e-015 1.11319e-014
rhumerus -37.0335 0.986503 -74.5764
rradius 28.4518
rwrist -8.92584
rhand -18.9728 -23.2279
rfingers 7.12502
rthumb 7.33143 -53.0809
lclavicle 1.31695e-015 1.11319e-014
lhumerus -39.4529 0.0309763 77.7906
lradius 28.1522
lwrist 39.4078
lhand -20.9906 -0.503183
lfingers 7.12502
lthumb 5.38338 29.4084
rfemur -42.6987 12.422 19.7501
rtibia 35.3707
rfoot -15.9615 -12.5226
rtoes -18.9499
lfemur -15.8152 -5.80211 -21.5261
ltibia 17.665
lfoot -18.2276 1.37255
ltoes -11.2204
792
root 0.65683 16.2828 -42.2763 19.6589 0.477832 -1.93917
lowerback -14.6166 0.968226 8.60225
upperback -6.32949 0.00850443 4.24696
thorax 1.45504 -0.0859594 -0.375483
lowerneck -18.4994 3.59996 4.98674
upperneck 33.1256 5.88846 -6.2911
head 14.9776 2.27466 -2.40905
rclavicle 1.0871e-014 -2.38542e-014
rhumerus -37.2112 0.674907 -74.3944
rradius 28.314
rwrist -8.88846
rhand -19.133 -22.8594
rfingers 7.12502
rthumb 7.17676 -52.7177
lclavicle 1.0871e-014 -2.38542e-014
lhumerus -39.2175 -0.103445 77.8874
lradius 28.3025
lwrist 39.3647
lhand -21.1347 -0.630931
lfingers 7.12502
lthumb 5.24429 29.2842
rfemur -42.8406 12.5851 19.6592
rtibia 35.3583
rfoot -15.9615 -12.5226
rtoes -18.9499
lfemur -14.7165 -6.45631 -21.472
ltibia 15.4824
lfoot -18.0851 2.22998
ltoes -10.2738
793
root 0.67025 16.2817 -42.3303 19.6335 0.73471 -1.99839
lowerback -14.6394 0.798234 8.34916
upperback -6.33959 -0.182476 4.2453
thorax 1.44785 -0.176941 -0.266942
lowerneck -18.3217 3.62068 5.15228
upperneck 33.2 5.8591 -6.25816
head 14.9737 2.29073 -2.43332
rclavicle 2.09345e-015 -2.06736e-014
rhumerus -37.3839 0.310779 -74.1899
rradius 28.2125
rwrist -8.72876
rhand -19.1754 -22.8308
rfingers 7.12502
rthumb 7.13589 -52.6905
lclavicle 2.09345e-015 -2.06736e-014
lhumerus -38.9589 -0.218164 77.9774
lradius 28.4681
lwrist 39.2693
lhand -21.1901 -0.766831
lfingers 7.12502
lthumb 5.19077 29.1496
rfemur -43 12.7528 19.5267
rtibia 35.3146
rfoot -15.9615 -12.5226
rtoes -18.9499
lfemur -13.7852 -7.18938 -21.4015
ltibia 13.5294
lfoot -17.8467 3.01121
ltoes -9.26574
794
root 0.684501 16.2838 -42.387 19.6395 1.02353 -2.02597
lowerback -14.6817 0.617267 8.07294
upperback -6.34486 -0.387091 4.23273
thorax 1.45723 -0.273867 -0.158986
lowerneck -18.1408 3.65007 5.32938
upperneck 33.2696 5.83848 -6.22338
head 14.968 2.31241 -2.45713
rclavicle 1.88411e-014 -5.08889e-014
rhumerus -37.5347 -0.107663 -73.967
rradius 28.1477
rwrist -8.47832
rhand -19.0874 -23.0243
rfingers 7.12502
rthumb 7.22074 -52.8811
lclavicle 1.88411e-014 -5.08889e-014
lhumerus -38.6661 -0.37471 78.0968
lradius 28.678
lwrist 39.2054
lhand -21.2037 -0.864294
lfingers 7.12502
lthumb 5.17769 29.0525
rfemur -43.171 12.9317 19.3355
rtibia 35.2381
rfoot -15.9615 -12.5226
rtoes -18.9499
lfemur -13.1136 -7.95057 -21.3408
ltibia 11.9477
lfoot -17.5408 3.69874
ltoes -8.32849
